<svg id="cancel" viewBox="0 0 42 40" xmlns="http://www.w3.org/2000/svg">
<path d="M10.1063 21.9012L0.444665 12.2456C-0.148222 11.6531 -0.148222 10.6924 0.444665 10.0999L10.1063 0.444385C10.6992 -0.148128 11.6604 -0.148128 12.2533 0.444385C12.8462 1.0369 12.8462 1.99755 12.2533 2.59006L5.18339 9.65555L26.8182 9.65555C28.8119 9.65555 30.7861 10.048 32.628 10.8105C34.47 11.5729 36.1436 12.6905 37.5534 14.0994C38.9631 15.5083 40.0814 17.1808 40.8444 19.0216C41.6073 20.8624 42 22.8353 42 24.8278C42 26.8202 41.6073 28.7932 40.8444 30.6339C40.0814 32.4747 38.9631 34.1473 37.5534 35.5562C36.1436 36.965 34.47 38.0826 32.628 38.8451C30.7861 39.6076 28.8119 40 26.8182 40C25.9797 40 25.3 39.3207 25.3 38.4828C25.3 37.6448 25.9797 36.9656 26.8182 36.9656C28.4132 36.9656 29.9925 36.6516 31.4661 36.0416C32.9396 35.4316 34.2785 34.5376 35.4063 33.4105C36.5341 32.2834 37.4288 30.9453 38.0391 29.4727C38.6495 28.0001 38.9636 26.4217 38.9636 24.8278C38.9636 23.2338 38.6495 21.6555 38.0391 20.1828C37.4288 18.7102 36.5341 17.3722 35.4063 16.2451C34.2785 15.118 32.9396 14.2239 31.4661 13.6139C29.9925 13.0039 28.4132 12.69 26.8182 12.69L5.18339 12.69L12.2533 19.7555C12.8462 20.348 12.8462 21.3086 12.2533 21.9012C11.6604 22.4937 10.6992 22.4937 10.1063 21.9012Z"/>
</svg>
