<svg id="edit" viewBox="0 0 50 51" xmlns="http://www.w3.org/2000/svg">
<path d="M46.148 31.5674C45.4602 31.5674 44.9028 32.1276 44.9028 32.8189V43.9312C44.9003 46.0041 43.2295 47.6839 41.167 47.6859H6.2263C4.16384 47.6839 2.49295 46.0041 2.49052 43.9312V11.3173C2.49295 9.24494 4.16384 7.56514 6.2263 7.56269H17.2828C17.9706 7.56269 18.5281 7.00243 18.5281 6.31115C18.5281 5.62036 17.9706 5.05961 17.2828 5.05961H6.2263C2.78919 5.06352 0.00389143 7.86287 0 11.3173V43.9317C0.00389143 47.3862 2.78919 50.1855 6.2263 50.1895H41.167C44.6041 50.1855 47.3894 47.3862 47.3933 43.9317V32.8189C47.3933 32.1276 46.8358 31.5674 46.148 31.5674Z"/>
<path d="M46.9003 1.83907C44.7119 -0.360419 41.1638 -0.360419 38.9754 1.83907L16.7592 24.1674C16.6069 24.3204 16.497 24.5101 16.4396 24.7183L13.5181 35.3188C13.3979 35.7534 13.52 36.2188 13.8372 36.5381C14.1548 36.8568 14.6179 36.9795 15.0504 36.8593L25.5976 33.9226C25.8048 33.8649 25.9936 33.7544 26.1458 33.6014L48.3615 11.2726C50.5466 9.07162 50.5466 5.50863 48.3615 3.30768L46.9003 1.83907ZM19.4725 24.9809L37.6547 6.7064L43.5186 12.5999L25.3359 30.8744L19.4725 24.9809ZM18.3012 27.3432L22.986 32.0521L16.5057 33.8566L18.3012 27.3432ZM46.6007 9.50281L45.28 10.8301L39.4156 4.93615L40.7368 3.60883C41.9523 2.38711 43.9234 2.38711 45.1389 3.60883L46.6007 5.07744C47.8143 6.30062 47.8143 8.28011 46.6007 9.50281Z"/>
</svg>
