<svg id="escape" viewBox="0 0 44 50" xmlns="http://www.w3.org/2000/svg">
<path d="M6 3H25C26.6569 3 28 4.34315 28 6V19H31V6C31 2.68629 28.3137 0 25 0H6C2.68629 0 0 2.68629 0 6V44C0 47.3137 2.68629 50 6 50H25C28.3137 50 31 47.3137 31 44V31H28V44C28 45.6569 26.6569 47 25 47H6C4.34315 47 3 45.6569 3 44V6C3 4.34315 4.34315 3 6 3Z"/>
<path fill-rule="evenodd" clip-rule="evenodd" d="M19 25C19 24.1716 19.6716 23.5 20.5 23.5H41.5C42.3284 23.5 43 24.1716 43 25C43 25.8284 42.3284 26.5 41.5 26.5H20.5C19.6716 26.5 19 25.8284 19 25Z"/>
<path fill-rule="evenodd" clip-rule="evenodd" d="M34.4393 32.4257C33.8536 31.8399 33.8536 30.8901 34.4393 30.3043L40.8033 23.9404C41.3891 23.3546 42.3388 23.3546 42.9246 23.9404C43.5104 24.5262 43.5104 25.4759 42.9246 26.0617L36.5607 32.4257C35.9749 33.0114 35.0251 33.0114 34.4393 32.4257Z"/>
<path fill-rule="evenodd" clip-rule="evenodd" d="M34.4393 17.5754C35.0251 16.9896 35.9749 16.9896 36.5607 17.5754L42.9246 23.9393C43.5104 24.5251 43.5104 25.4749 42.9246 26.0607C42.3388 26.6464 41.3891 26.6464 40.8033 26.0607L34.4393 19.6967C33.8536 19.1109 33.8536 18.1612 34.4393 17.5754Z"/>
</svg>
