<svg id="remove" viewBox="0 0 75 75" xmlns="http://www.w3.org/2000/svg">
<path fill-rule="evenodd" clip-rule="evenodd" d="M4.5 37.5C4.5 55.7254 19.2746 70.5 37.5 70.5C55.7254 70.5 70.5 55.7254 70.5 37.5C70.5 19.2746 55.7254 4.5 37.5 4.5C19.2746 4.5 4.5 19.2746 4.5 37.5ZM37.5 0C16.7893 0 0 16.7893 0 37.5C0 58.2107 16.7893 75 37.5 75C58.2107 75 75 58.2107 75 37.5C75 16.7893 58.2107 0 37.5 0Z"/>
<path d="M21.5901 56.5919L18.4081 53.4099L53.4099 18.4081L56.5919 21.5901L21.5901 56.5919Z"/>
<path d="M18.4081 21.5901L21.5901 18.4081L56.5919 53.4099L53.4099 56.5919L18.4081 21.5901Z"/>
</svg>
