<svg id="retry" viewBox="0 0 42 40" xmlns="http://www.w3.org/2000/svg">
<path d="M31.8937 21.9012L41.5553 12.2456C42.1482 11.6531 42.1482 10.6924 41.5553 10.0999L31.8937 0.444385C31.3008 -0.148128 30.3396 -0.148128 29.7467 0.444385C29.1538 1.0369 29.1538 1.99755 29.7467 2.59006L36.8166 9.65555L15.1818 9.65555C13.1881 9.65555 11.2139 10.048 9.37198 10.8105C7.53004 11.5729 5.85641 12.6905 4.44665 14.0994C3.03689 15.5083 1.9186 17.1808 1.15565 19.0216C0.392689 20.8624 0 22.8353 0 24.8278C0 26.8202 0.392689 28.7932 1.15565 30.6339C1.9186 32.4747 3.03688 34.1473 4.44664 35.5562C5.8564 36.965 7.53003 38.0826 9.37197 38.8451C11.2139 39.6076 13.1881 40 15.1818 40C16.0203 40 16.7 39.3207 16.7 38.4828C16.7 37.6448 16.0203 36.9656 15.1818 36.9656C13.5868 36.9656 12.0075 36.6516 10.5339 36.0416C9.06039 35.4316 7.72149 34.5376 6.59368 33.4105C5.46587 32.2834 4.57124 30.9453 3.96087 29.4727C3.35051 28.0001 3.03636 26.4217 3.03636 24.8278C3.03636 23.2338 3.35051 21.6555 3.96088 20.1828C4.57124 18.7102 5.46587 17.3722 6.59368 16.2451C7.72149 15.118 9.06039 14.2239 10.5339 13.6139C12.0075 13.0039 13.5868 12.69 15.1818 12.69L36.8166 12.69L29.7467 19.7555C29.1538 20.348 29.1538 21.3086 29.7467 21.9012C30.3396 22.4937 31.3008 22.4937 31.8937 21.9012Z"/>
</svg>
