<svg id="save" viewBox="0 0 512 512" xmlns="http://www.w3.org/2000/svg">
<path d="M166 332H346C354.284 332 361 325.284 361 317C361 308.716 354.284 302 346 302H166C157.716 302 151 308.716 151 317C151 325.284 157.716 332 166 332Z"/>
<path d="M166 392H346C354.284 392 361 385.284 361 377C361 368.716 354.284 362 346 362H166C157.716 362 151 368.716 151 377C151 385.284 157.716 392 166 392Z"/>
<path d="M507.606 84.394L427.606 4.394C424.793 1.58 420.978 0 417 0H15C6.716 0 0 6.716 0 15V497C0 505.284 6.716 512 15 512C21.912 512 492.495 512 497 512C505.284 512 512 505.284 512 497V95C512 91.021 510.419 87.206 507.606 84.394ZM121 30H331V130H121V30ZM391 482H121V272H391V482ZM482 482H421V257C421 248.716 414.284 242 406 242H106C97.716 242 91 248.716 91 257V482H30V30H91V145C91 153.284 97.716 160 106 160H346C354.284 160 361 153.284 361 145V30H410.787L482 101.213V482Z"/>
<path d="M166 452H346C354.284 452 361 445.284 361 437C361 428.716 354.284 422 346 422H166C157.716 422 151 428.716 151 437C151 445.284 157.716 452 166 452Z"/>
</svg>
